PathFileType	4	(X/Y/Z)	TVC_12_BWA1_walk_RCNL2025.trc
DataRate	CameraRate	NumFrames	NumMarkers	Units	OrigDataRate	OrigDataStartFrame	OrigNumFrames
100	100	11	27	mm	100	1	468
Frame#	Time	R_Shoulder			L_Shoulder			C7			J_Notch			R_Elbow			L_Elbow			R_Wrist			L_Wrist			R_Asis			L_Asis			R_Psis			L_Psis			Sacral			Thoracic			Sternum			R_Thigh_Lateral			R_Knee_Lateral			R_Shank_Lateral			R_Ankle_Lateral			R_Heel			R_Toe			L_Thigh_Lateral			L_Knee_Lateral			L_Shank_Lateral			L_Ankle_Lateral			L_Heel			L_Toe		
		X1	Y1	Z1	X2	Y2	Z2	X3	Y3	Z3	X4	Y4	Z4	X5	Y5	Z5	X6	Y6	Z6	X7	Y7	Z7	X8	Y8	Z8	X9	Y9	Z9	X10	Y10	Z10	X11	Y11	Z11	X12	Y12	Z12	X13	Y13	Z13	X14	Y14	Z14	X15	Y15	Z15	X16	Y16	Z16	X17	Y17	Z17	X18	Y18	Z18	X19	Y19	Z19	X20	Y20	Z20	X21	Y21	Z21	X22	Y22	Z22	X23	Y23	Z23	X24	Y24	Z24	X25	Y25	Z25	X26	Y26	Z26	X27	Y27	Z27
1	0.00000000	-1667.736816	1322.978271	431.879059	-1625.759033	1333.332153	15.360355	-1751.622314	1400.973389	217.946548	-1598.473999	1285.767578	230.338120	-1787.015747	1000.139221	467.417389	-1755.306641	1018.382996	-72.393448	-1741.321594	755.962769	425.783554	-1715.323303	779.175018	-42.005210	-1681.145264	897.835510	383.199219	-1641.611572	905.482605	30.358089	-1844.592773	922.771729	248.744995	-1835.046387	929.585999	142.711990	-1839.819580	926.178864	195.728493	-1837.426636	1147.083984	192.780014	-1508.117432	1099.393311	226.558258	-1595.878784	608.686951	416.274567	-1547.582520	485.455505	370.954376	-1565.584961	269.122620	422.075897	-1562.155029	56.886749	367.491028	-1601.969116	51.652912	308.375214	-1426.169189	44.674877	353.309845	-1759.191895	586.150513	-5.374781	-1796.432739	463.711365	65.131386	-1884.430908	287.581757	20.415543	-1955.591309	82.807709	84.105904	-2009.321777	78.551414	135.119003	-1827.674438	37.518780	103.679855
2	0.01000000	-1661.330688	1323.085449	434.412811	-1619.260620	1334.458862	17.954510	-1745.309814	1401.697266	220.644852	-1592.205566	1286.499756	232.823044	-1780.653320	1000.159485	469.273651	-1748.374878	1019.550598	-70.451263	-1734.817200	756.106232	427.023621	-1708.775818	780.276703	-40.436144	-1674.062744	898.437073	385.081970	-1635.569824	905.940491	32.055653	-1837.823730	923.843018	251.210724	-1828.718384	930.394043	145.230453	-1833.271057	927.118530	198.220589	-1830.833008	1147.753540	195.158813	-1501.434814	1100.176392	228.556870	-1589.918945	609.185913	418.004486	-1543.016235	485.053589	372.083557	-1563.189331	268.851685	422.355621	-1561.686035	56.918133	367.303375	-1601.512451	51.813629	308.206268	-1425.496460	44.281223	353.092102	-1753.497314	587.083740	-4.385145	-1792.092041	464.753448	65.826065	-1881.332886	289.626068	20.586983	-1954.363403	85.509041	83.581436	-2008.204712	81.528557	134.544510	-1827.314697	37.669369	103.794258
3	0.02000000	-1654.833374	1323.351807	436.945526	-1612.856201	1335.758057	20.527655	-1738.964111	1402.588745	223.381058	-1585.944458	1287.371582	235.278839	-1774.158936	1000.351807	471.202362	-1741.332764	1020.803955	-68.461052	-1728.281738	756.409180	428.347687	-1702.187561	781.474854	-38.800118	-1666.937012	899.162659	386.893555	-1629.574829	906.593384	33.774719	-1831.055054	925.138184	253.811066	-1822.458618	931.448364	147.777679	-1826.756836	928.293274	200.794373	-1824.236084	1148.602295	197.634842	-1494.693115	1101.137085	230.536957	-1585.384033	609.095947	419.499695	-1539.054565	484.622314	373.122162	-1561.173706	268.630280	422.615997	-1561.325928	56.954792	367.142120	-1601.132690	51.958984	308.039642	-1424.933105	43.980812	352.895844	-1747.350586	588.045166	-3.439455	-1786.987915	465.743652	66.493851	-1878.037598	291.790436	20.717331	-1953.322021	88.439453	83.159416	-2006.903198	84.739067	134.015564	-1826.835938	37.957268	103.881622
4	0.03000000	-1648.248413	1323.802490	439.466766	-1606.545776	1337.234131	23.076054	-1732.586426	1403.640381	226.148880	-1579.676636	1288.371094	237.702469	-1767.520630	1000.738464	473.199158	-1734.232544	1022.171387	-66.404366	-1721.709961	756.891602	429.764267	-1695.567383	782.785980	-37.102285	-1659.787109	900.031738	388.612885	-1623.623535	907.459717	35.536602	-1824.303467	926.635437	256.509552	-1816.258667	932.735779	150.313385	-1820.281067	929.685608	203.411469	-1817.649048	1149.629883	200.189316	-1487.925293	1102.263550	232.492630	-1582.090454	608.532471	420.757233	-1535.637451	484.208710	374.085266	-1559.477905	268.464905	422.894592	-1561.063965	56.988766	367.024414	-1600.832153	52.094574	307.900360	-1424.489258	43.761204	352.744934	-1740.790649	589.046143	-2.550256	-1781.140015	466.683472	67.087334	-1874.498779	294.044678	20.788145	-1952.322266	91.486763	82.837822	-2005.400024	88.179535	133.543640	-1826.243408	38.347641	103.920410
5	0.04000000	-1641.576904	1324.455078	441.966797	-1600.322021	1338.881714	25.595989	-1726.175903	1404.839111	228.935623	-1573.389404	1289.488525	240.091431	-1760.735718	1001.335938	475.258453	-1727.146118	1023.676941	-64.262901	-1715.096436	757.566467	431.280807	-1688.925049	784.226562	-35.348701	-1652.643677	901.052673	390.226959	-1617.718994	908.551758	37.352787	-1817.596191	928.304443	259.254822	-1810.113892	934.236816	152.802277	-1813.855042	931.270630	206.028549	-1811.083862	1150.828979	202.799698	-1481.179199	1103.527344	234.419937	-1579.747559	607.679688	421.803925	-1532.702515	483.844025	374.982941	-1558.047363	268.347992	423.203461	-1560.883423	57.014778	366.954346	-1600.608276	52.221645	307.801880	-1424.163696	43.609386	352.646729	-1733.886719	590.105713	-1.732062	-1774.648315	467.576447	67.554520	-1870.664551	296.359467	20.790909	-1951.187622	94.606575	82.599884	-2003.673828	91.847473	133.151291	-1825.558838	38.773457	103.897377
6	0.05000000	-1634.821533	1325.316772	444.436432	-1594.169312	1340.688354	28.082933	-1719.730591	1406.167725	231.722961	-1567.072510	1290.718018	242.442123	-1753.812866	1002.152283	477.374542	-1720.148926	1025.333496	-62.024025	-1708.438171	758.437439	432.903244	-1682.271057	785.810547	-33.543483	-1645.546509	902.222229	391.734131	-1611.868652	909.870483	39.224884	-1810.970093	930.113464	261.985840	-1804.026733	935.927063	155.215897	-1807.498413	933.020264	208.600868	-1804.551636	1152.185181	205.440659	-1474.508789	1104.886841	236.316467	-1578.040527	606.735046	422.684174	-1530.195190	483.539795	375.814636	-1556.828857	268.267090	423.532288	-1560.765869	57.030735	366.925598	-1600.453003	52.338303	307.744934	-1423.943237	43.510880	352.593323	-1726.729492	591.243286	-0.997777	-1767.603882	468.412781	67.855324	-1866.489014	298.712830	20.728102	-1949.771362	97.804398	82.434425	-2001.698242	95.741966	132.871582	-1824.811890	39.154366	103.806740
7	0.06000000	-1627.988159	1326.382446	446.867523	-1588.065674	1342.635986	30.531540	-1713.251953	1407.605225	234.490463	-1560.712769	1292.057617	244.749603	-1746.770752	1003.184387	479.542206	-1713.306885	1027.142578	-59.685192	-1701.735229	759.497803	434.634384	-1675.618286	787.547089	-31.686614	-1638.542969	903.528381	393.145966	-1606.079346	911.401733	41.149162	-1804.467773	932.034363	264.641022	-1798.001465	937.774902	157.535004	-1801.234619	934.904633	211.088013	-1798.061157	1153.677734	208.086075	-1467.961426	1106.290894	238.180710	-1576.694824	605.862122	423.442780	-1528.071655	483.292480	376.569183	-1555.770874	268.211243	423.855804	-1560.694336	57.037868	366.925385	-1600.354858	52.441399	307.719757	-1423.808105	43.452019	352.567841	-1719.414551	592.470947	-0.356502	-1760.039551	469.173187	67.968163	-1861.940796	301.090088	20.610857	-1947.993530	101.107895	82.350540	-1999.440552	99.863335	132.745773	-1824.033081	39.417137	103.653511
8	0.07000000	-1621.086548	1327.632324	449.252106	-1581.989502	1344.699707	32.936687	-1706.746582	1409.129028	237.218872	-1554.299438	1293.501587	247.008667	-1739.636108	1004.415955	481.757019	-1706.666138	1029.095215	-57.256775	-1694.988892	760.730530	436.472275	-1668.985596	789.435425	-29.773601	-1631.681885	904.951355	394.487457	-1600.350830	913.114197	43.118946	-1798.130493	934.043762	267.167969	-1792.043457	939.742004	159.750305	-1795.086975	936.892883	213.459137	-1791.619141	1155.282227	210.712234	-1461.563232	1107.690552	240.013336	-1575.507202	605.165222	424.114319	-1526.295532	483.093445	377.231995	-1554.828979	268.175049	424.145691	-1560.654663	57.039783	366.938812	-1600.300659	52.528278	307.711639	-1423.736328	43.421932	352.551788	-1712.019043	593.785034	0.186423	-1751.933960	469.836029	67.890205	-1857.004761	303.480530	20.457159	-1945.836548	104.547173	82.372749	-1996.860840	104.212845	132.818161	-1823.246826	39.516754	103.457787
9	0.08000000	-1614.128418	1329.033081	451.580475	-1575.923340	1346.847290	35.294125	-1700.224731	1410.714722	239.891541	-1547.833374	1295.032349	249.214371	-1732.440186	1005.817810	484.014648	-1700.245972	1031.170898	-54.761982	-1688.199951	762.108551	438.410583	-1662.396301	791.459595	-27.797240	-1625.009766	906.462402	395.792755	-1594.675903	914.959229	45.124855	-1791.990479	936.120117	269.529755	-1786.164307	941.789368	161.859100	-1789.077393	938.954742	215.694427	-1785.229980	1156.970703	213.299850	-1455.310791	1109.052612	241.817398	-1574.350586	604.687988	424.722137	-1524.832031	482.936920	377.793030	-1553.974854	268.159027	424.382080	-1560.635986	57.040726	366.952057	-1600.277832	52.597195	307.707031	-1423.707886	43.411552	352.529633	-1704.581055	595.161499	0.628228	-1743.240967	470.378418	67.634460	-1851.675171	305.876251	20.290398	-1943.307861	108.140419	82.526176	-1993.910400	108.793488	133.128510	-1822.462891	39.451508	103.255608
10	0.09000000	-1607.127197	1330.541260	453.840363	-1569.856323	1349.039917	37.599197	-1693.696533	1412.333984	242.495697	-1541.327271	1296.618774	251.362610	-1725.215698	1007.350159	486.309753	-1694.041260	1033.337158	-52.232052	-1681.368469	763.596588	440.440659	-1655.872498	793.587952	-25.750860	-1618.566162	908.023987	397.098083	-1589.046387	916.876221	47.156422	-1786.064941	938.239624	271.709167	-1780.383301	943.883118	163.861053	-1783.224121	941.061371	217.785110	-1778.895996	1158.712524	215.834290	-1449.177124	1110.363892	243.594742	-1573.160767	604.425781	425.281250	-1523.641724	482.820251	378.248596	-1553.199341	268.165344	424.557831	-1560.630249	57.043976	366.954529	-1600.276123	52.646687	307.697296	-1423.706421	43.412975	352.490997	-1697.091309	596.555786	0.968890	-1733.915405	470.777649	67.225235	-1845.940796	308.272461	20.134611	-1940.407837	111.894920	82.826469	-1990.531738	113.610176	133.704575	-1821.675537	39.256111	103.091690
11	0.10000000	-1600.096924	1332.108154	456.019196	-1563.783569	1351.234375	39.845924	-1687.171875	1413.954956	245.023972	-1534.799438	1298.223389	253.450104	-1717.995361	1008.965576	488.635284	-1688.032227	1035.551025	-49.699223	-1674.494568	765.154602	442.552444	-1649.427979	795.779022	-23.631622	-1612.380859	909.593079	398.436096	-1583.465088	918.802124	49.205738	-1780.354370	940.375183	273.709686	-1774.723145	945.993591	165.758423	-1777.538757	943.184387	219.734055	-1772.619751	1160.473755	218.304626	-1443.129761	1111.620117	245.343430	-1571.915283	604.343323	425.802032	-1522.678101	482.740387	378.602966	-1552.509277	268.191895	424.675751	-1560.633179	57.050606	366.939697	-1600.288208	52.675499	307.678345	-1423.721436	43.421093	352.431793	-1689.501343	597.906433	1.213894	-1723.929565	471.015106	66.694000	-1839.767700	310.664825	20.007423	-1937.121216	115.818604	83.278381	-1986.658936	118.667206	134.556961	-1820.870728	38.976223	103.007355
